PathFileType	3	(X/Y/Z)	D:\minhoCalibration\240510\subject2_KPNP\preferred\preferred17.trc
DataRate	CameraRate	NumFrames	NumMarkers	Units	OrigDataRate	OrigDataStartFrame	OrigNumFrames
200.0	200.0	27	10	mm	200.0	495	194	
Frame#	Time	Left_Ankle_Outer1			Left_Ankle_Inner1			Left_Knee_Outer1			Left_Knee_Inner1			Left_Wrist1			Right_Wrist1			Right_Knee_Inner1			Right_Knee_Outer1			Right_Ankle_Inner1			Right_Ankle_Outer1			
		X1	Y1	Z1	X2	Y2	Z2	X3	Y3	Z3	X4	Y4	Z4	X5	Y5	Z5	X6	Y6	Z6	X7	Y7	Z7	X8	Y8	Z8	X9	Y9	Z9	X10	Y10	Z10	
495	2.465	-629.93237	81.630089	-710.81396	-633.63678	86.523849	-654.63721	-534.30945	505.41519	-742.92627	-587.05585	493.20328	-662.08685	-470.42996	972.87469	-801.7489	-731.15289	1062.3293	-596.97302	-652.0575	590.37982	-380.44049	-732.60394	631.8042	-364.23251	-760.97803	200.52179	-453.83926	-855.6601	219.63815	-437.75943
496	2.47	-629.54358	80.931969	-709.98657	-634.33118	87.152351	-652.27948	-534.77563	505.11343	-742.42566	-587.95416	493.2052	-661.82654	-469.65207	973.1402	-799.87476	-733.8551	1060.1204	-598.53986	-659.45386	584.8302	-387.32483	-740.28595	625.94952	-372.55664	-765.28729	196.29747	-470.31537	-861.75415	214.59857	-455.63855
497	2.475	-629.56775	80.836594	-710.10767	-634.44427	87.114037	-652.32721	-535.11646	504.92139	-741.91437	-589.31372	492.99048	-661.83582	-468.85767	973.5321	-797.15771	-736.60675	1057.8993	-600.15601	-667.01959	579.60388	-394.32541	-749.08618	621.2262	-377.85083	-765.72046	194.10072	-488.2532	-866.84229	210.44576	-473.60382
498	2.48	-629.46619	80.844086	-710.33777	-634.35321	87.022179	-652.83942	-535.35901	504.74799	-741.47662	-590.47101	492.75439	-661.86969	-468.52429	973.83032	-795.5105	-739.3277	1055.6815	-601.81964	-673.78851	574.5639	-400.96954	-756.81122	615.81281	-386.56097	-769.9834	190.77821	-503.63641	-871.48071	206.41083	-491.70071
499	2.485	-629.42426	80.760582	-710.55811	-635.26489	84.58007	-657.52484	-535.47168	504.63116	-740.99872	-591.28925	492.44928	-661.7312	-467.94739	974.2699	-793.53473	-742.07184	1053.4792	-603.466	-681.47333	569.45551	-408.32669	-764.20111	610.31024	-395.62436	-774.27814	187.3812	-519.12567	-875.91937	202.80241	-509.92703
500	2.49	-629.39276	80.700615	-710.75122	-634.23273	86.257675	-655.24976	-535.55304	504.64816	-740.51404	-591.98047	492.44437	-661.71277	-467.67413	974.55194	-791.48499	-744.62793	1051.2502	-605.16821	-688.61914	564.604	-415.52707	-771.86255	605.2583	-404.26065	-778.73444	183.95027	-534.46558	-880.41125	199.57124	-527.53937
501	2.495	-629.26691	80.601952	-710.8634	-634.9599	86.517998	-654.17725	-535.49719	504.73474	-739.97803	-592.55157	492.46222	-661.64264	-466.02759	975.35474	-788.57074	-747.48248	1049.0596	-606.86462	-695.82703	559.98596	-422.98212	-779.20288	600.32739	-413.37857	-782.83276	180.87367	-549.5766	-884.82416	196.54337	-545.50079
502	2.5	-629.30096	80.57235	-711.1319	-634.3269	86.142136	-655.79004	-535.33032	504.83441	-739.49951	-592.95453	492.54633	-661.58575	-466.21875	975.78845	-786.90942	-750.10138	1046.8311	-608.59363	-702.8111	555.26727	-430.37036	-786.36884	595.52942	-422.55383	-787.75012	178.48897	-563.01855	-889.33179	193.97459	-563.73065
503	2.505	-629.21045	80.591583	-711.31049	-634.76788	84.903351	-657.22766	-535.20728	504.90158	-738.89496	-593.23938	492.58679	-661.42291	-465.95059	976.29749	-784.90369	-752.79535	1044.6141	-610.46967	-709.74939	550.91394	-437.92587	-793.37268	590.92584	-431.96042	-794.40881	173.46156	-578.81415	-893.46716	191.58014	-581.20697
504	2.51	-629.05579	80.630417	-711.39929	-634.28387	86.12056	-655.91138	-534.77142	505.12402	-738.44366	-593.34949	492.69266	-661.29871	-465.88004	976.9472	-782.67212	-755.39716	1042.39	-612.42145	-715.95947	546.75085	-444.27103	-800.14471	586.53833	-441.52371	-798.38916	170.99113	-593.39044	-897.33661	189.59933	-598.15112
505	2.515	-628.91541	80.604843	-711.44495	-634.71057	84.989998	-657.14117	-534.30652	505.22357	-737.9765	-593.38574	492.82373	-661.18512	-465.43701	977.85187	-780.65179	-758.08588	1040.0659	-614.08893	-722.52429	542.06525	-452.63736	-806.64532	582.43878	-451.32111	-802.90094	168.03766	-608.42889	-901.15955	187.75652	-614.96185
506	2.52	-628.72772	80.616127	-711.56714	-634.59961	85.869629	-655.91791	-533.74011	505.42963	-737.48901	-593.31	492.8707	-661.09222	-465.16843	978.80353	-778.57251	-760.75085	1037.8459	-616.05597	-729.00403	537.93701	-460.508	-813.38135	578.62909	-460.34097	-806.59064	166.10254	-621.84863	-905.21399	186.33655	-632.06781
507	2.525	-628.54462	80.582832	-711.63489	-634.91266	86.746826	-654.18854	-533.1275	505.50049	-737.01624	-593.20514	492.9603	-660.91876	-465.00281	979.61151	-776.70508	-763.38776	1035.7046	-618.05859	-735.23767	534.00177	-468.56982	-818.66895	573.67493	-472.58679	-810.85089	164.02798	-635.71552	-908.65594	184.97557	-647.70325
508	2.53	-628.29382	80.611885	-711.75427	-634.06903	85.682312	-656.95868	-532.70673	505.46289	-736.47375	-593.04993	493.01532	-660.79333	-464.95926	980.58734	-774.40076	-766.08899	1033.634	-620.13617	-740.85559	530.29498	-476.8718	-825.14142	570.43256	-481.73813	-814.96259	161.7522	-649.11292	-912.51105	184.1622	-664.00647
509	2.535	-628.09039	80.57737	-711.88611	-634.25574	84.94738	-657.88489	-532.08075	505.57339	-736.01599	-592.90271	493.01318	-660.75946	-466.57635	981.41699	-771.17322	-768.78247	1031.5835	-622.25885	-746.94672	526.80127	-484.78226	-831.32043	568.013	-489.6048	-818.94934	159.97104	-663.44061	-915.67999	183.11497	-679.20404
510	2.54	-627.89001	80.578453	-712.05273	-634.49524	86.40506	-655.74017	-531.3504	505.66064	-735.59198	-592.60297	492.87558	-660.25323	-466.84729	982.4624	-768.90295	-771.53674	1029.517	-624.33026	-752.69568	523.67438	-493.55615	-836.2525	564.78015	-500.62704	-822.92932	158.43562	-676.01636	-919.33435	182.72327	-694.83105
511	2.545	-627.61835	80.640656	-712.25208	-634.77899	86.806976	-655.04547	-530.72467	505.70435	-735.12518	-592.91785	492.689	-660.8161	-467.30826	983.42944	-766.59741	-774.35791	1027.484	-626.43463	-758.52936	520.84198	-502.15405	-841.57446	561.78064	-510.58316	-826.81866	156.92047	-688.73938	-922.26825	182.0472	-709.91333
512	2.55	-627.43903	80.583519	-712.50208	-634.02881	85.257439	-658.29858	-530.20612	505.71811	-734.62378	-592.91473	492.49887	-660.8667	-466.88425	984.72479	-764.73242	-777.15369	1025.5315	-628.62604	-763.92059	517.7381	-510.28329	-847.38281	559.02173	-520.09222	-830.49426	155.61647	-701.03436	-925.0155	181.58411	-724.43469
513	2.555	-627.22607	80.574959	-712.72839	-634.29089	86.069016	-657.16974	-529.70557	505.76575	-734.06464	-592.98859	492.35864	-660.95789	-467.34219	985.77399	-762.60284	-779.79712	1023.6541	-630.83856	-769.46198	515.29767	-519.14563	-852.72003	557.34058	-529.1261	-834.21338	154.66618	-712.69482	-927.72437	181.18486	-738.96021
514	2.56	-627.03937	80.53006	-712.94769	-633.80298	85.486664	-658.77246	-529.11615	505.84793	-733.60162	-593.13654	492.2276	-661.08783	-467.95575	986.84839	-760.58667	-782.48688	1021.8353	-633.26001	-775.01959	512.89941	-527.76251	-858.12201	555.05084	-538.83685	-837.22998	153.17702	-724.7785	-929.97589	180.88779	-752.87537
515	2.565	-626.90515	80.766182	-713.58575	-634.40973	86.820122	-656.67004	-528.55908	505.95718	-733.1142	-593.35571	492.14999	-661.23218	-468.66687	987.7912	-758.55151	-785.13708	1020.0052	-635.77014	-780.67261	510.70636	-535.83533	-862.61621	552.80304	-550.07855	-840.14502	152.02563	-736.2865	-932.13379	180.56232	-766.51044
516	2.57	-626.66455	80.707443	-713.83875	-633.72601	85.438683	-659.51013	-528.10291	506.06625	-732.63062	-593.58575	492.16074	-661.38428	-469.49295	988.84186	-756.52185	-787.89978	1018.2655	-638.5401	-786.28882	508.84622	-544.30438	-868.18823	551.24304	-559.25085	-843.10797	150.78151	-747.2085	-934.12048	180.17133	-779.94812
517	2.575	-626.47034	80.765106	-714.05688	-634.62573	86.985161	-656.7677	-527.61438	506.23621	-732.13727	-593.87335	492.20004	-661.53552	-470.31201	989.83496	-754.54156	-790.65155	1016.5669	-641.43695	-791.60504	506.60681	-552.80487	-872.72424	549.38586	-570.52747	-845.94983	149.5074	-757.64819	-935.65912	179.88583	-792.82617
518	2.58	-626.17712	80.480461	-713.90741	-633.79034	85.330673	-660.21313	-527.21234	506.42188	-731.64539	-594.13507	492.35074	-661.70502	-471.17169	990.72107	-752.58502	-793.42212	1014.8811	-644.46198	-796.87433	504.33118	-561.62805	-878.29877	548.47339	-579.69965	-846.70563	149.09538	-769.10571	-937.30292	179.66605	-805.612
519	2.585	-625.836	80.489494	-714.13898	-633.84106	86.31517	-659.13129	-526.63458	506.76358	-731.10455	-594.44342	492.5842	-661.82013	-472.1824	991.60089	-750.49243	-796.29681	1013.2932	-647.68585	-802.89923	503.5817	-569.41125	-883.13531	547.35034	-589.74451	-849.68323	148.32056	-778.30005	-938.60022	179.4855	-817.78748
520	2.59	-625.6189	80.515068	-714.31073	-634.27307	86.364815	-658.86151	-526.12872	507.18683	-730.4538	-594.78528	492.86273	-661.93835	-472.98486	992.48596	-748.5791	-799.10132	1011.7471	-651.01337	-808.58459	502.15726	-577.28308	-886.44269	544.3902	-604.67023	-853.2287	147.41663	-787.63123	-939.84888	179.14304	-829.58191
521	2.595	-625.44727	80.804543	-714.92853	-633.75726	86.392609	-659.5332	-525.72742	507.40753	-729.91699	-595.1427	493.17215	-662.12689	-474.33737	993.10791	-746.56317	-801.86395	1010.2418	-654.49304	-813.92542	501.06894	-585.73804	-890.5083	543.22852	-615.35236	-854.92017	146.46117	-796.97455	-940.83868	178.92317	-840.98468
